<?xml version="1.0" standalone="no"?>
<!DOCTYPE svg PUBLIC "-//W3C//DTD SVG 20010904//EN"
 "http://www.w3.org/TR/2001/REC-SVG-20010904/DTD/svg10.dtd">
<svg version="1.0" xmlns="http://www.w3.org/2000/svg"
 width="512.000000pt" height="512.000000pt" viewBox="0 0 512.000000 512.000000"
 preserveAspectRatio="xMidYMid meet">
<metadata>
Created by potrace 1.14, written by Peter Selinger 2001-2017
</metadata>
<g transform="translate(0.000000,512.000000) scale(0.100000,-0.100000)"
fill="#000000" stroke="none">
<path d="M1340 4554 c-14 -2 -56 -9 -95 -15 -352 -57 -678 -297 -849 -627 -61
-119 -92 -203 -123 -332 -22 -91 -26 -136 -30 -341 -8 -351 16 -546 98 -794
97 -292 255 -550 473 -769 94 -95 308 -266 331 -266 5 0 110 151 233 335 l222
335 0 153 c0 163 11 228 54 322 26 58 175 240 186 228 4 -4 19 -57 34 -118 15
-60 31 -127 37 -147 l10 -38 82 0 82 0 102 102 103 102 227 -111 c296 -145
391 -173 601 -173 56 0 102 -4 102 -8 0 -4 10 -75 22 -157 14 -95 22 -199 22
-285 0 -125 -3 -142 -30 -221 -52 -146 -93 -197 -275 -333 l-159 -118 0 -319
0 -319 83 53 c274 178 1191 792 1238 828 306 240 539 571 658 934 72 220 101
415 101 669 -1 297 -53 525 -178 770 -172 338 -463 562 -834 642 -110 24 -361
24 -466 0 -319 -72 -549 -225 -761 -508 -41 -54 -77 -98 -81 -98 -4 0 -40 44
-81 98 -207 277 -440 435 -739 503 -81 19 -340 34 -400 23z m1780 -902 c26
-13 87 -63 140 -117 l95 -95 122 0 123 0 0 -107 c0 -136 -11 -177 -64 -229
-52 -53 -93 -64 -228 -64 l-108 0 0 -240 0 -240 -64 0 c-154 0 -293 34 -445
108 l-94 45 44 13 c58 17 112 63 138 117 19 38 21 62 21 200 l0 157 -80 0 -80
0 0 -135 c0 -131 -1 -137 -25 -160 -22 -23 -32 -25 -120 -25 l-95 0 0 84 c0
243 73 449 211 601 51 56 106 91 164 106 17 4 91 7 165 5 115 -2 142 -6 180
-24z"/>
<path d="M2880 3360 l0 -80 80 0 80 0 0 80 0 80 -80 0 -80 0 0 -80z"/>
<path d="M2000 2160 l0 -80 80 0 80 0 0 80 0 80 -80 0 -80 0 0 -80z"/>
<path d="M2343 988 c-129 -130 -132 -134 -118 -158 8 -14 14 -51 15 -83 l0
-57 116 -76 c64 -41 118 -73 120 -71 3 2 3 133 2 291 l-3 286 -132 -132z"/>
</g>
</svg>
